<svg xmlns="http://www.w3.org/2000/svg" width="16" height="16" viewBox="0 0 16 16">
  <!-- Symbolisches Icon: eine Farbe, Loecher per evenodd. Cinnamon faerbt es
       auf die Panel-Vordergrundfarbe um, deshalb steht hier nur ein Grauwert. -->
  <path fill="#bebebe" fill-rule="evenodd" d="
    M8 1.2c-1.9 0-3.3.2-4.1.4-.5.1-.9.6-.9 1.1v7.6c0 .9.7 1.6 1.6 1.6h6.8c.9 0 1.6-.7 1.6-1.6V2.7c0-.5-.4-1-.9-1.1-.8-.2-2.2-.4-4.1-.4z
    M5.2 3.4h5.6v3.2H5.2z
    M5.6 8.3a1.05 1.05 0 1 0 0 2.1 1.05 1.05 0 0 0 0-2.1z
    M10.4 8.3a1.05 1.05 0 1 0 0 2.1 1.05 1.05 0 0 0 0-2.1z
  "/>
  <path fill="#bebebe" d="
    M6.3 12.6 4.3 15.2h1.5l1.6-2.6z
    M9.7 12.6l2 2.6h-1.5l-1.6-2.6z
  "/>
</svg>
